PathFileType	4	(X/Y/Z)	D:\Share\Shared_Data\Ergonomics\Sit To Stand Pertubation\S0\Perturbed STS.trc
DataRate	CameraRate	NumFrames	NumMarkers	Units	OrigDataRate	OrigDataStartFrame	OrigNumFrames	
100	100	6	18	m	100	12846	241
Frame#	Time	R_Heel			R_ASIS			R_Pelvis			V_Sacral			L_Pelvis			L_ASIS			Clavical			R_Acromium			L_Acromium			Sternum			Torso			R_Thigh_Med			R_Thigh_Lat			R_Thigh			R_Shank_Med			R_Shank_Lat			R_Shank			R_Toe			
		X1	Y1	Z1	X2	Y2	Z2	X3	Y3	Z3	X4	Y4	Z4	X5	Y5	Z5	X6	Y6	Z6	X7	Y7	Z7	X8	Y8	Z8	X9	Y9	Z9	X10	Y10	Z10	X11	Y11	Z11	X12	Y12	Z12	X13	Y13	Z13	X14	Y14	Z14	X15	Y15	Z15	X16	Y16	Z16	X17	Y17	Z17	X18	Y18	Z18	

12846	84.8	0.1735042	0.046692497	0.12016339	-0.051111622	0.74272876	0.13298819	-0.17682686	0.70943323	0.17700232	-0.28691132	0.66304419	-0.053456577	-0.14648531	0.69834973	-0.22978835	-0.031494759	0.73540253	-0.18371823	-0.051192974	1.1096334	-0.036113285	-0.13390315	1.1717009	0.10316706	-0.13745575	1.1752532	-0.18854428	-0.020270485	1.0168558	-0.051543137	-0.045171383	1.0608958	-0.15819904	0.31386475	0.49640863	0.051011326	0.29085248	0.51331946	0.18427066	0.21425597	0.64723407	0.099436195	0.27203281	0.10668636	0.079041962	0.21510977	0.088607826	0.16760481	0.26368701	0.31277756	0.19280556	0.39388199	0.051472378	0.10882429
12847	84.81	0.17348962	0.046610516	0.11994979	-0.051330444	0.74245172	0.1329413	-0.17681992	0.70946039	0.1769984	-0.28694812	0.66309894	-0.053450546	-0.14653166	0.69837769	-0.22980133	-0.031521488	0.73539624	-0.18373494	-0.050786236	1.1095631	-0.036195164	-0.13339467	1.1717341	0.10309308	-0.1370302	1.1752328	-0.18861696	-0.01996097	1.0167468	-0.051616852	-0.04483704	1.0608026	-0.15827342	0.31381812	0.49638699	0.050895325	0.29081778	0.51327106	0.18416164	0.21423148	0.64720697	0.099368866	0.27203036	0.10662537	0.078850967	0.2150643	0.088586037	0.16738548	0.2636734	0.31270798	0.19265604	0.39395514	0.051563633	0.10889552
12848	84.82	0.1734705	0.046519875	0.11974188	-0.05150164	0.74222137	0.1329017	-0.17680257	0.70948865	0.1769989	-0.28698032	0.66315637	-0.053443314	-0.1465759	0.69841193	-0.22981367	-0.031545588	0.73539001	-0.18375198	-0.050329716	1.1094844	-0.036278618	-0.13282932	1.1717666	0.10301714	-0.13655156	1.1752146	-0.1886904	-0.019611332	1.0166282	-0.05169117	-0.044459927	1.0606998	-0.1583481	0.31376602	0.49635721	0.050773701	0.29078781	0.51321777	0.18404974	0.2142133	0.64717657	0.099301605	0.27202185	0.10656208	0.078663651	0.21501154	0.088558701	0.16717754	0.26366473	0.31263348	0.19250182	0.39401755	0.051656281	0.10896307
12849	84.83	0.17344562	0.046421436	0.11954327	-0.051610313	0.74205042	0.13287083	-0.1767753	0.70952014	0.17700438	-0.28700778	0.66321857	-0.053434422	-0.14661757	0.69845306	-0.22982381	-0.031566143	0.73538251	-0.18376936	-0.049819595	1.1093972	-0.03636433	-0.13220314	1.1717983	0.10293905	-0.13601599	1.175199	-0.18876414	-0.019219236	1.0164996	-0.051766804	-0.044037006	1.0605874	-0.15842332	0.3137059	0.49631979	0.050646404	0.29076321	0.51315991	0.18393463	0.214202	0.64714429	0.099235939	0.27200781	0.10649883	0.07848381	0.21495088	0.088525856	0.16698167	0.2636582	0.31255637	0.19234592	0.39406674	0.051752079	0.1090243
12850	84.84	0.17341389	0.046316875	0.11935838	-0.05165694	0.74193573	0.13284851	-0.17673947	0.70955713	0.17701494	-0.28703049	0.66328809	-0.053423435	-0.14665575	0.69850092	-0.22983014	-0.031581738	0.73537274	-0.18378685	-0.049252251	1.1093011	-0.036453098	-0.1315125	1.171829	0.10285888	-0.13541939	1.1751865	-0.18883798	-0.018782312	1.0163616	-0.051844883	-0.043565735	1.0604658	-0.15849973	0.31363672	0.49627579	0.050514099	0.2907442	0.513099	0.18381625	0.21419731	0.64711151	0.099172089	0.2719874	0.10643761	0.078315392	0.2148822	0.0884879	0.16679865	0.26365027	0.31247995	0.19219234	0.3941008	0.051852821	0.10907686
12851	84.85	0.17337474	0.04620845	0.11919141	-0.051650032	0.74186615	0.13283353	-0.17669664	0.70960107	0.17703008	-0.28704883	0.66336829	-0.05341003	-0.14668922	0.69855518	-0.22983147	-0.031590443	0.73535986	-0.18380438	-0.048623936	1.1091969	-0.03654565	-0.13075388	1.1718584	0.10277682	-0.13475748	1.1751782	-0.18891206	-0.018298052	1.0162134	-0.051926834	-0.043043983	1.0603358	-0.15857829	0.31355927	0.49622656	0.050378109	0.2907308	0.51303784	0.18369493	0.21419804	0.6470799	0.099108719	0.27195859	0.10637962	0.078161476	0.21480603	0.088445618	0.16662988	0.26363788	0.31240781	0.19204507	0.39411795	0.051960033	0.10911897
